<svg xmlns="http://www.w3.org/2000/svg" viewBox="0 0 2400 760" width="2400" height="760" role="img" aria-label="Caio Gracco — Terapias da Completude">
  <rect width="2400" height="760" fill="#F7EEDB"/>
  <g transform="translate(120 70) scale(0.62)">
  
  
  <defs>
    <radialGradient id="cg-nucleo" cx="0.38" cy="0.32" r="0.78">
      <stop offset="0" stop-color="#E8B65A"/><stop offset="0.55" stop-color="#D89B2A"/><stop offset="1" stop-color="#B4761A"/>
    </radialGradient>
    <radialGradient id="cg-fundo" cx="0.42" cy="0.36" r="0.78">
      <stop offset="0" stop-color="#FDF8EE"/><stop offset="1" stop-color="#F2E6CD"/>
    </radialGradient>
  </defs>
  <circle cx="500" cy="500" r="392" fill="url(#cg-fundo)" stroke="#B1477C" stroke-width="5"/>
  <g><path d="M506.5 368.0L504.5 264.0L495.5 264.0L493.5 368.0Z" fill="#D89B2A"/><path d="M540.4 374.2L572.2 248.1L563.5 245.8L527.9 370.8Z" fill="#B4761A"/><path d="M571.6 388.9L634.9 275.4L627.1 270.9L560.4 382.4Z" fill="#D89B2A"/><path d="M597.9 411.3L670.1 336.3L663.7 329.9L588.7 402.1Z" fill="#B4761A"/><path d="M617.6 439.6L729.1 372.9L724.6 365.1L611.1 428.4Z" fill="#D89B2A"/><path d="M629.2 472.1L754.2 436.5L751.9 427.8L625.8 459.6Z" fill="#B4761A"/><path d="M632.0 506.5L736.0 504.5L736.0 495.5L632.0 493.5Z" fill="#D89B2A"/><path d="M625.8 540.4L751.9 572.2L754.2 563.5L629.2 527.9Z" fill="#B4761A"/><path d="M611.1 571.6L724.6 634.9L729.1 627.1L617.6 560.4Z" fill="#D89B2A"/><path d="M588.7 597.9L663.7 670.1L670.1 663.7L597.9 588.7Z" fill="#B4761A"/><path d="M560.4 617.6L627.1 729.1L634.9 724.6L571.6 611.1Z" fill="#D89B2A"/><path d="M527.9 629.2L563.5 754.2L572.2 751.9L540.4 625.8Z" fill="#B4761A"/><path d="M493.5 632.0L495.5 736.0L504.5 736.0L506.5 632.0Z" fill="#D89B2A"/><path d="M459.6 625.8L427.8 751.9L436.5 754.2L472.1 629.2Z" fill="#B1477C"/><path d="M428.4 611.1L365.1 724.6L372.9 729.1L439.6 617.6Z" fill="#E289AE"/><path d="M402.1 588.7L329.9 663.7L336.3 670.1L411.3 597.9Z" fill="#B1477C"/><path d="M382.4 560.4L270.9 627.1L275.4 634.9L388.9 571.6Z" fill="#E289AE"/><path d="M370.8 527.9L245.8 563.5L248.1 572.2L374.2 540.4Z" fill="#B1477C"/><path d="M368.0 493.5L264.0 495.5L264.0 504.5L368.0 506.5Z" fill="#E289AE"/><path d="M374.2 459.6L248.1 427.8L245.8 436.5L370.8 472.1Z" fill="#B1477C"/><path d="M388.9 428.4L275.4 365.1L270.9 372.9L382.4 439.6Z" fill="#E289AE"/><path d="M411.3 402.1L336.3 329.9L329.9 336.3L402.1 411.3Z" fill="#B1477C"/><path d="M439.6 382.4L372.9 270.9L365.1 275.4L428.4 388.9Z" fill="#E289AE"/><path d="M472.1 370.8L436.5 245.8L427.8 248.1L459.6 374.2Z" fill="#B1477C"/></g>
  <circle cx="500" cy="500" r="108" fill="url(#cg-nucleo)"/>
</g>
  <text x="880" y="360" font-family="Jost, 'Trebuchet MS', 'Helvetica Neue', Arial, sans-serif" font-size="146" font-weight="300" letter-spacing="26" fill="#0D1A4A">CAIO GRACCO</text>
  <text x="892" y="486" font-family="'Cormorant Garamond', Georgia, serif" font-style="italic" font-size="76" letter-spacing="6" fill="#B1477C">Terapias da Completude</text>
</svg>